<?xml version="1.0" encoding="UTF-8"?>
<svg width="160mm" height="90mm" version="1.1" viewBox="0 0 160 90" xmlns="http://www.w3.org/2000/svg" xmlns:cc="http://creativecommons.org/ns#" xmlns:dc="http://purl.org/dc/elements/1.1/" xmlns:rdf="http://www.w3.org/1999/02/22-rdf-syntax-ns#" xmlns:xlink="http://www.w3.org/1999/xlink">
 <defs>
  <linearGradient id="linearGradient225" x1="111" x2="109" y1="92.5" y2="45.2" gradientTransform="translate(-34.7 -21.6)" gradientUnits="userSpaceOnUse">
   <stop stop-color="#1a1a1a" offset="0"/>
   <stop stop-color="#666666" offset="1"/>
  </linearGradient>
  <linearGradient id="linearGradient233" x1="65.5" x2="64.4" y1="188" y2="113" gradientTransform="translate(11.8 -105)" gradientUnits="userSpaceOnUse">
   <stop stop-color="#ff80b2" offset="0"/>
   <stop stop-color="#ffd5e5" offset="1"/>
  </linearGradient>
 </defs>
 <metadata>
  <rdf:RDF>
   <cc:Work rdf:about="">
    <dc:format>image/svg+xml</dc:format>
    <dc:type rdf:resource="http://purl.org/dc/dcmitype/StillImage"/>
    <dc:title/>
   </cc:Work>
  </rdf:RDF>
 </metadata>
 <g stroke-width=".353">
  <path d="m65.3 83.2c-13.7-0.595-19.1-2.59-26.8-9.78-5.05-4.76-5.06-6.84-0.0599-12.9 5.51-6.68 8.23-8.08 16.8-8.63 3.76-0.24 11.6-0.825 17.4-1.3 28-2.28 29.5-2.38 40.9-2.41 16.5-0.0542 19.2 0.408 19.2 3.2 0 7.62-21.8 26.2-34.4 29.3-4.96 1.23-11.7 2.1-18.3 2.36-2.52 0.0987-5.54 0.226-6.7 0.283-1.16 0.0567-4.79-0.0131-8.05-0.155zm-34.4-23.8c-2.62-3.33-2.17-19.1 0.849-30 5.05-18.1 13-23.3 25.8-16.9 3.02 1.52 3.02 1.52 5.55 0.0269 8.45-4.97 17.1-4.21 33.9 2.96 20.7 8.81 41.2 25.4 38.1 30.7-1.44 2.43-4.36 2.05-36.5-4.73-33.2-7-43.5-5.41-54.6 8.43-7.76 9.63-11.1 12.1-13.1 9.55z" fill="url(#linearGradient233)"/>
  <path d="m11.9 71.2c-4.37-1.93-3.33-10.9 2.67-23.1 2.54-5.13 2.54-5.14-0.462-4.3-2.16 0.6-3.22 1.72-2.76 2.92 1.01 2.65-1.98 4.4-4.93 2.88-4.27-2.21 2.03-10.5 7.32-9.66 3.52 0.576 5.32-0.0627 6.95-2.47 5.32-7.86 11.7-13.1 16.7-13.7 1.49-0.176 5.38 0.383 5.38 0.773 0 0.106-2.78 13.2-4.11 19.4-1.57 7.3-2.3 10.8-2.62 12.5-1.67 9.12-1.58 8.99-5.93 9.1-4.72 0.118-4.51 1.17-2.02-10.3 1.73-7.97 2.23-10.8 1.81-10.4-0.147 0.139-0.54 0.106-0.873-0.0719-1.45-0.774-5.64-1.67-5.97-1.28-2.53 3.04-7.31 20.2-7.02 25.2 0.178 3.07-1 3.75-4.13 2.37zm19-29.6c0.287-1.41 1.2-5.65 1.97-9.18 0.416-1.9 0.698-3.62 0.626-3.84-0.373-1.12-6.03 5.98-8.24 10.3-0.913 1.8-0.795 2.1 0.893 2.3 0.494 0.0566 1.61 0.329 2.49 0.605 2.13 0.675 2.08 0.68 2.26-0.222zm91.3 29.5c-4.3-1.81-2.91-11.9 3.34-24.1 2.04-3.97 2.16-3.75-1.78-3.11-1.22 0.2-2.08 1.65-2 3.36 0.142 3.12-4.96 4.19-6.08 1.27-1.81-4.72 3.25-8.53 11.5-8.6 2.33-0.0225 2.33-0.0225 3.85-2.23 5.02-7.25 13.6-14.7 15.5-13.5 0.183 0.113 0.433 0.0445 0.555-0.153 0.763-1.24 6.32-9e-3 6.09 1.34-0.159 0.927-3.29 15.7-4.28 20.2-0.278 1.26-0.839 3.88-1.25 5.82-3.2 15.3-2.62 14.1-7 14.2-4.7 0.118-4.4 0.792-2.88-6.31 0.597-2.8 1.47-6.89 1.94-9.09 0.838-3.92 1.05-5.66 0.656-5.26-0.11 0.11-1.13-0.165-2.27-0.611-1.14-0.446-2.14-0.743-2.22-0.66-0.083 0.083-0.557-4e-3 -1.05-0.193-2.38-0.905-8.05 16.1-8.14 24.4-0.0484 4.07-0.915 4.7-4.42 3.23zm19.4-30.1c0.137-0.679 0.602-2.98 1.03-5.12 0.431-2.13 0.984-4.71 1.23-5.73s0.367-1.85 0.27-1.85c-1.12 0-4.85 4.55-7.64 9.33-1.75 3-1.74 3.39 0.148 3.6 0.614 0.0673 1.53 0.325 2.04 0.572 1.71 0.832 2.63 0.578 2.91-0.806zm-95.3 24.5c0-0.272 4.54-20.9 5.47-24.8 0.297-1.26 0.689-3.09 0.871-4.06 0.182-0.97 0.655-3.26 1.05-5.09 0.849-3.91 0.852-3.91-1.17-2.72-4.13 2.42-6.51 9.01-4.84 13.4 0.696 1.82 0.541 2.07-1.18 1.88-8.27-0.909-4.38-17.2 4.46-18.7 0.245-0.0411 0.808-0.274 1.25-0.516 0.442-0.243 1.36-0.492 2.04-0.553 0.68-0.061 1.34-0.212 1.46-0.335 0.373-0.373 4.34-0.251 5.77 0.176 1.47 0.44 1.2-0.385 4.25 13.2 0.393 1.75 0.932 4.13 1.2 5.29 0.267 1.16 0.832 3.7 1.26 5.64 1.23 5.64 1.21 5.59 1.69 2.99 0.233-1.26 0.644-3.32 0.914-4.58 0.443-2.08 0.793-3.79 2.51-12.3 2.27-11.3 1.86-10.4 4.85-10.5 3.21-0.122 3.06-0.638 1.65 5.63-1.28 5.67-1.29 5.93-0.181 3.54 1.52-3.26 6.4-7.55 9.06-7.96 0.259-0.0392 0.67-0.195 0.912-0.347 0.243-0.152 0.586-0.186 0.764-0.0761 0.177 0.11 0.377 0.0377 0.442-0.16 0.403-1.21 8.52-0.637 8.9 0.627 0.0997 0.335 0.436 1.72 0.747 3.08 1.37 5.98 5.07 22.3 5.29 23.4 0.315 1.51 0.682 1.08 1.17-1.36 0.212-1.07 1.27-6.23 2.36-11.5s2.13-10.5 2.32-11.6c0.586-3.56 0.362-3.35 3.56-3.35 2.84 0 2.84 0 2.62 0.882-0.208 0.829-1.47 6.55-3.03 13.8-3.09 14.3-4.67 21.5-5.12 23.4-0.29 1.2-0.526 2.59-0.526 3.09 0 2.14-7.97 1.24-8.46-0.954-0.227-1.02-1.12-4.87-1.98-8.55-3.51-15-3.93-16.6-4.15-15.7-0.117 0.485-1.17 5.09-2.34 10.2-1.17 5.14-2.35 10.2-2.62 11.3-0.271 1.07-0.594 2.54-0.717 3.26-0.224 1.32-0.224 1.32-2.8 1.32-3.15 0-3.05 0.106-2.44-2.57 7.2-31.4 7.97-35.6 6.35-34.7-4.71 2.68-7.05 8.56-5.41 13.6 0.316 0.966 0.575 1.84 0.575 1.94 0 0.327-2.63 0.126-3.09-0.236-0.243-0.191-0.441-0.237-0.441-0.103 0 2.28-3.16-2.98-3.21-5.35-0.0423-1.96-0.0205-2.02-1.34 4.13-1.56 7.25-2.52 11.7-3.72 17.2-0.688 3.14-1.25 5.81-1.25 5.92 0 2.71-7.98-0.531-8.68-3.52-0.45-1.94-1.06-4.56-1.36-5.82s-1.26-5.47-2.14-9.35c-1.97-8.71-1.92-8.58-2.49-6-0.95 4.29-3.89 17.2-5.02 22-0.541 2.32-6.07 4.68-6.07 2.59z" fill="url(#linearGradient225)"/>
 </g>
</svg>
