<?xml version="1.0" encoding="UTF-8"?>
<svg width="160mm" height="90mm" version="1.1" viewBox="0 0 160 90" xmlns="http://www.w3.org/2000/svg" xmlns:cc="http://creativecommons.org/ns#" xmlns:dc="http://purl.org/dc/elements/1.1/" xmlns:rdf="http://www.w3.org/1999/02/22-rdf-syntax-ns#" xmlns:xlink="http://www.w3.org/1999/xlink">
 <defs>
  <linearGradient id="linearGradient237" x1="65.5" x2="64.4" y1="188" y2="113" gradientTransform="translate(9.75 -107)" gradientUnits="userSpaceOnUse">
   <stop stop-color="#ff80b2" offset="0"/>
   <stop stop-color="#ffd5e5" offset="1"/>
  </linearGradient>
  <linearGradient id="linearGradient255" x1="78.6" x2="78.6" y1="72.4" y2="20.8" gradientUnits="userSpaceOnUse">
   <stop stop-color="#333333" offset="0"/>
   <stop stop-color="#666666" offset="1"/>
  </linearGradient>
 </defs>
 <metadata>
  <rdf:RDF>
   <cc:Work rdf:about="">
    <dc:format>image/svg+xml</dc:format>
    <dc:type rdf:resource="http://purl.org/dc/dcmitype/StillImage"/>
    <dc:title/>
   </cc:Work>
  </rdf:RDF>
 </metadata>
 <g>
  <path d="m63.3 80.6c-13.7-0.595-19.1-2.59-26.8-9.78-5.05-4.76-5.06-6.84-0.0599-12.9 5.51-6.68 8.23-8.08 16.8-8.63 3.76-0.24 11.6-0.825 17.4-1.3 28-2.28 29.5-2.38 40.9-2.41 16.5-0.0542 19.2 0.408 19.2 3.2 0 7.62-21.8 26.2-34.4 29.3-4.96 1.23-11.7 2.1-18.3 2.36-2.52 0.0987-5.54 0.226-6.7 0.283-1.16 0.0567-4.79-0.0131-8.05-0.155zm-34.4-23.8c-2.62-3.33-2.17-19.1 0.849-30 5.05-18.1 13-23.3 25.8-16.9 3.02 1.52 3.02 1.52 5.55 0.0269 8.45-4.97 17.1-4.21 33.9 2.96 20.7 8.81 41.2 25.4 38.1 30.7-1.44 2.43-4.36 2.05-36.5-4.73-33.2-7-43.5-5.41-54.6 8.43-7.76 9.63-11.1 12.1-13.1 9.55z" fill="url(#linearGradient237)" stroke-width=".353"/>
  <path d="m136 72.7c-5.99-1.82-3.95-9.4 4.43-16.4 2.56-2.15 3.05-2.81 3.12-4.21 0.0238-0.496-0.0943-0.426-0.554 0.328-1.77 2.9-4.81 3.62-6.62 1.56-0.968-1.1-0.968-1.1-2.97 0-4.13 2.27-11.2 0.435-11.2-2.91 0-0.619-0.194-0.505-1.7 0.997-4.42 4.42-10.2 3.96-10.3-0.826-0.0284-1.04-0.0284-1.04-0.325-0.0154-0.996 3.45-4.89 4.98-7.09 2.78-1.08-1.08-1.08-1.08-2.68 0-2.75 1.85-6.29 1.25-7.07-1.21-0.214-0.676-0.22-0.675-0.883 0.138-2.24 2.75-7.12 2.91-8.75 0.288-0.378-0.606-0.401-0.606-1.22-0.0264-8.65 6.16-18.9-2.12-14.4-11.7 3.5-7.54 13.6-7.22 13.1 0.419-0.241 3.79-1.81 5.27-7.78 7.36-0.368 0.129-0.3 0.296 0.315 0.768 2.19 1.68 8.81-0.439 8.82-2.83 0.0178-3.84 3.14-8.61 6.72-10.3 2.16-1.01 5.09-1.08 5.34-0.134 0.134 0.513 0.43 0.63 1.59 0.63 2.65 0 2.68 0.122 1.6 6.31-1.16 6.7-0.745 7.95 1.89 5.63 1.55-1.36 1.65-1.61 2.21-5.36 0.951-6.37 1.79-7.84 4.47-7.84 2.17 0 2.26 0.352 1.24 4.88-2.48 11 0.794 10.2 4.25-1.04 1.07-3.48 1.4-3.84 3.51-3.84 2.17 0 2.18 0.0997 0.415 8.76-1.33 6.52-0.249 7.29 3.79 2.69 2.47-2.81 2.64-7.35 0.281-7.35-3.03 0-2.88-3.82 0.164-4.09 1.73-0.157 1.73-0.157 2.13-1.89 2.14-9.44 5.33-14.2 9.53-14.2 4.53 0 4.78 8.55 0.418 14.2-1.38 1.8-1.38 1.8 1.07 1.89 2.45 0.0921 2.45 0.0921 2.54 1.2 0.176 2.09-0.864 2.64-5.39 2.82-4.27 0.175-4.6 0.733-3.68 6.06 1.03 5.9 7.95 5.39 8.63-0.628 0.848-7.49 1.89-9.52 4.89-9.52 1.9 0 2.08 0.979 0.983 5.3-2.6 10.2 0.648 9.79 4.04-0.536 1.57-4.76 1.57-4.77 3.7-4.77 2.08 0 2.14 0.575 0.872 8.28-0.985 5.97-1.13 5.75 2.16 3.39 3.66-2.62 4.64-2.55 4.64 0.301 0 1.41-0.668 2.03-5.58 5.2-2.46 1.59-2.95 2.05-3.19 2.98-0.156 0.606-0.608 2.45-1 4.09-2.2 9.15-5.99 13.6-10.4 12.3zm3.36-5.73c0.929-1.39 2.88-6.76 2.57-7.07-0.226-0.226-3.63 3.56-4.21 4.68-1.81 3.5-0.433 5.5 1.65 2.39zm-48.9-17.4c0.713-0.935 2.37-7.16 2.37-8.9 0-1.67-3.33 0.911-4.57 3.54-2.12 4.47-0.369 8.72 2.2 5.35zm-15.6-5.11c1.69-1.1 2-3.16 0.608-4.03-1.13-0.71-3.17 1.79-3.6 4.38-0.197 1.22 0.765 1.1 2.99-0.35zm54.7-13.5c1.47-3.01 1.73-6.79 0.456-6.79-0.778 0-3.47 8.15-3.44 10.4 0.0115 0.728 2.09-1.79 2.98-3.61zm-90.2 25.6c-1.3-1.21 0.0578-12.8 2.77-23.7 0.856-3.42 1.18-3.72 3.95-3.61 2.69 0.111 2.83 0.472 1.74 4.53-3.59 13.4-3.51 16.7 0.43 16.6 10.4-0.108 14.4-8.63 4.62-9.8-2.05-0.246-2.05-0.246-2.14-1.73-0.15-2.33 0.166-2.64 2.84-2.85 6.97-0.538 11.1-4.64 8-8.03-3.3-3.65-14.2-3.09-22.4 1.15-2.99 1.55-3.95 1.26-3.95-1.23 0-4.65 14.3-8.43 25.1-6.65 10.4 1.71 11.5 13.3 1.58 16.9-1.7 0.615-1.82 0.714-1.14 0.931 4.02 1.28 4.88 7.5 1.56 11.3-2.57 2.92-6.58 4.31-13.2 4.55-4.12 0.151-4.54 0.221-4.69 0.768-0.387 1.48-3.8 2.05-5.09 0.85zm-24.7-1.42c-0.706-0.205-1.23-2.13-0.985-3.65 0.191-1.19 0.191-1.19-4.43-1.19-7.83 0-8.12-1.67-2.36-13.4 2.38-4.85 3.08-5.56 5.36-5.43 2.81 0.161 2.8 0.761-0.109 6.61-2.13 4.29-3.39 7.03-3.39 7.38 0 2.45 5.65-0.425 6.12-3.11 0.95-5.5 1.6-6.4 4.46-6.16 1.51 0.124 1.75 1.55 0.933 5.51-0.729 3.53-0.686 3.88 0.475 3.88 3.38 0 3.1 4.14-0.309 4.59-1.52 0.202-1.52 0.202-1.69 2.1-0.23 2.53-1.69 3.57-4.07 2.87z" fill="url(#linearGradient255)" stroke-width=".315"/>
 </g>
</svg>
